<?xml version="1.0" encoding="utf-8" standalone="no"?>
<!DOCTYPE svg PUBLIC "-//W3C//DTD SVG 1.1//EN"
  "http://www.w3.org/Graphics/SVG/1.1/DTD/svg11.dtd">
<svg xmlns:xlink="http://www.w3.org/1999/xlink" width="518.4pt" height="244.8pt" viewBox="0 0 518.4 244.8" xmlns="http://www.w3.org/2000/svg" version="1.1">
 <metadata>
  <rdf:RDF xmlns:dc="http://purl.org/dc/elements/1.1/" xmlns:cc="http://creativecommons.org/ns#" xmlns:rdf="http://www.w3.org/1999/02/22-rdf-syntax-ns#">
   <cc:Work>
    <dc:type rdf:resource="http://purl.org/dc/dcmitype/StillImage"/>
    <dc:date>2026-08-27T15:25:21.863268</dc:date>
    <dc:format>image/svg+xml</dc:format>
    <dc:creator>
     <cc:Agent>
      <dc:title>Matplotlib v3.11.1, https://matplotlib.org/</dc:title>
     </cc:Agent>
    </dc:creator>
   </cc:Work>
  </rdf:RDF>
 </metadata>
 <defs>
  <style type="text/css">*{stroke-linejoin: round; stroke-linecap: butt}</style>
 </defs>
 <g id="figure_1">
  <g id="patch_1">
   <path d="M 0 244.8 
L 518.4 244.8 
L 518.4 0 
L 0 0 
z
" style="fill: #ffffff"/>
  </g>
  <g id="patch_2">
   <path d="M 0 244.8 
L 518.4 244.8 
L 518.4 0 
L 0 0 
L 0 244.8 
z
" style="fill: none; stroke: #ffffff; stroke-linejoin: miter"/>
  </g>
  <g id="axes_1">
   <g id="patch_3">
    <path d="M 49.087484 209.681141 
L 513.216 209.681141 
L 513.216 23.569031 
L 49.087484 23.569031 
z
" style="fill: #ebebeb"/>
   </g>
   <g id="matplotlib.axis_1">
    <g id="xtick_1">
     <g id="line2d_1">
      <path d="M 56.051468 209.681141 
L 56.051468 23.569031 
" clip-path="url(#p5f0f79ffe0)" style="fill: none; stroke: #ffffff; stroke-linecap: square"/>
     </g>
     <g id="line2d_2">
      <path d="M 56.051468 209.681141 
" style="fill: none; stroke: #333333; stroke-width: 1.5; stroke-linecap: square"/>
      <defs>
       <path id="me81c25638e" d="M 0 0 
L 0 2.75 
" style="stroke: #333333"/>
      </defs>
      <g>
       <use xlink:href="#me81c25638e" x="56.051468" y="209.681141" style="fill: #333333; stroke: #333333"/>
      </g>
     </g>
     <g id="text_1">
      <!-- -0.06 -->
      <g style="fill: #4d4d4d" transform="translate(44.667156 221.317078) scale(0.088 -0.088)">
       <defs>
        <path id="DejaVuSans-10" d="M 313 2009 
L 1997 2009 
L 1997 1497 
L 313 1497 
L 313 2009 
z
" transform="scale(0.015625)"/>
        <path id="DejaVuSans-13" d="M 2034 4250 
Q 1547 4250 1301 3770 
Q 1056 3291 1056 2328 
Q 1056 1369 1301 889 
Q 1547 409 2034 409 
Q 2525 409 2770 889 
Q 3016 1369 3016 2328 
Q 3016 3291 2770 3770 
Q 2525 4250 2034 4250 
z
M 2034 4750 
Q 2819 4750 3233 4129 
Q 3647 3509 3647 2328 
Q 3647 1150 3233 529 
Q 2819 -91 2034 -91 
Q 1250 -91 836 529 
Q 422 1150 422 2328 
Q 422 3509 836 4129 
Q 1250 4750 2034 4750 
z
" transform="scale(0.015625)"/>
        <path id="DejaVuSans-11" d="M 684 794 
L 1344 794 
L 1344 0 
L 684 0 
L 684 794 
z
" transform="scale(0.015625)"/>
        <path id="DejaVuSans-19" d="M 2113 2584 
Q 1688 2584 1439 2293 
Q 1191 2003 1191 1497 
Q 1191 994 1439 701 
Q 1688 409 2113 409 
Q 2538 409 2786 701 
Q 3034 994 3034 1497 
Q 3034 2003 2786 2293 
Q 2538 2584 2113 2584 
z
M 3366 4563 
L 3366 3988 
Q 3128 4100 2886 4159 
Q 2644 4219 2406 4219 
Q 1781 4219 1451 3797 
Q 1122 3375 1075 2522 
Q 1259 2794 1537 2939 
Q 1816 3084 2150 3084 
Q 2853 3084 3261 2657 
Q 3669 2231 3669 1497 
Q 3669 778 3244 343 
Q 2819 -91 2113 -91 
Q 1303 -91 875 529 
Q 447 1150 447 2328 
Q 447 3434 972 4092 
Q 1497 4750 2381 4750 
Q 2619 4750 2861 4703 
Q 3103 4656 3366 4563 
z
" transform="scale(0.015625)"/>
       </defs>
       <use xlink:href="#DejaVuSans-10"/>
       <use xlink:href="#DejaVuSans-13" transform="translate(36.078125 0)"/>
       <use xlink:href="#DejaVuSans-11" transform="translate(99.703125 0)"/>
       <use xlink:href="#DejaVuSans-13" transform="translate(131.484375 0)"/>
       <use xlink:href="#DejaVuSans-19" transform="translate(195.109375 0)"/>
      </g>
     </g>
    </g>
    <g id="xtick_2">
     <g id="line2d_3">
      <path d="M 161.79527 209.681141 
L 161.79527 23.569031 
" clip-path="url(#p5f0f79ffe0)" style="fill: none; stroke: #ffffff; stroke-linecap: square"/>
     </g>
     <g id="line2d_4">
      <path d="M 161.79527 209.681141 
" style="fill: none; stroke: #333333; stroke-width: 1.5; stroke-linecap: square"/>
      <g>
       <use xlink:href="#me81c25638e" x="161.79527" y="209.681141" style="fill: #333333; stroke: #333333"/>
      </g>
     </g>
     <g id="text_2">
      <!-- -0.03 -->
      <g style="fill: #4d4d4d" transform="translate(150.410958 221.317078) scale(0.088 -0.088)">
       <defs>
        <path id="DejaVuSans-16" d="M 2597 2516 
Q 3050 2419 3304 2112 
Q 3559 1806 3559 1356 
Q 3559 666 3084 287 
Q 2609 -91 1734 -91 
Q 1441 -91 1130 -33 
Q 819 25 488 141 
L 488 750 
Q 750 597 1062 519 
Q 1375 441 1716 441 
Q 2309 441 2620 675 
Q 2931 909 2931 1356 
Q 2931 1769 2642 2001 
Q 2353 2234 1838 2234 
L 1294 2234 
L 1294 2753 
L 1863 2753 
Q 2328 2753 2575 2939 
Q 2822 3125 2822 3475 
Q 2822 3834 2567 4026 
Q 2313 4219 1838 4219 
Q 1578 4219 1281 4162 
Q 984 4106 628 3988 
L 628 4550 
Q 988 4650 1302 4700 
Q 1616 4750 1894 4750 
Q 2613 4750 3031 4423 
Q 3450 4097 3450 3541 
Q 3450 3153 3228 2886 
Q 3006 2619 2597 2516 
z
" transform="scale(0.015625)"/>
       </defs>
       <use xlink:href="#DejaVuSans-10"/>
       <use xlink:href="#DejaVuSans-13" transform="translate(36.078125 0)"/>
       <use xlink:href="#DejaVuSans-11" transform="translate(99.703125 0)"/>
       <use xlink:href="#DejaVuSans-13" transform="translate(131.484375 0)"/>
       <use xlink:href="#DejaVuSans-16" transform="translate(195.109375 0)"/>
      </g>
     </g>
    </g>
    <g id="xtick_3">
     <g id="line2d_5">
      <path d="M 267.539072 209.681141 
L 267.539072 23.569031 
" clip-path="url(#p5f0f79ffe0)" style="fill: none; stroke: #ffffff; stroke-linecap: square"/>
     </g>
     <g id="line2d_6">
      <path d="M 267.539072 209.681141 
" style="fill: none; stroke: #333333; stroke-width: 1.5; stroke-linecap: square"/>
      <g>
       <use xlink:href="#me81c25638e" x="267.539072" y="209.681141" style="fill: #333333; stroke: #333333"/>
      </g>
     </g>
     <g id="text_3">
      <!-- 0.00 -->
      <g style="fill: #4d4d4d" transform="translate(257.742197 221.317078) scale(0.088 -0.088)">
       <use xlink:href="#DejaVuSans-13"/>
       <use xlink:href="#DejaVuSans-11" transform="translate(63.625 0)"/>
       <use xlink:href="#DejaVuSans-13" transform="translate(95.40625 0)"/>
       <use xlink:href="#DejaVuSans-13" transform="translate(159.03125 0)"/>
      </g>
     </g>
    </g>
    <g id="xtick_4">
     <g id="line2d_7">
      <path d="M 373.282874 209.681141 
L 373.282874 23.569031 
" clip-path="url(#p5f0f79ffe0)" style="fill: none; stroke: #ffffff; stroke-linecap: square"/>
     </g>
     <g id="line2d_8">
      <path d="M 373.282874 209.681141 
" style="fill: none; stroke: #333333; stroke-width: 1.5; stroke-linecap: square"/>
      <g>
       <use xlink:href="#me81c25638e" x="373.282874" y="209.681141" style="fill: #333333; stroke: #333333"/>
      </g>
     </g>
     <g id="text_4">
      <!-- 0.03 -->
      <g style="fill: #4d4d4d" transform="translate(363.485999 221.317078) scale(0.088 -0.088)">
       <use xlink:href="#DejaVuSans-13"/>
       <use xlink:href="#DejaVuSans-11" transform="translate(63.625 0)"/>
       <use xlink:href="#DejaVuSans-13" transform="translate(95.40625 0)"/>
       <use xlink:href="#DejaVuSans-16" transform="translate(159.03125 0)"/>
      </g>
     </g>
    </g>
    <g id="xtick_5">
     <g id="line2d_9">
      <path d="M 479.026676 209.681141 
L 479.026676 23.569031 
" clip-path="url(#p5f0f79ffe0)" style="fill: none; stroke: #ffffff; stroke-linecap: square"/>
     </g>
     <g id="line2d_10">
      <path d="M 479.026676 209.681141 
" style="fill: none; stroke: #333333; stroke-width: 1.5; stroke-linecap: square"/>
      <g>
       <use xlink:href="#me81c25638e" x="479.026676" y="209.681141" style="fill: #333333; stroke: #333333"/>
      </g>
     </g>
     <g id="text_5">
      <!-- 0.06 -->
      <g style="fill: #4d4d4d" transform="translate(469.229801 221.317078) scale(0.088 -0.088)">
       <use xlink:href="#DejaVuSans-13"/>
       <use xlink:href="#DejaVuSans-11" transform="translate(63.625 0)"/>
       <use xlink:href="#DejaVuSans-13" transform="translate(95.40625 0)"/>
       <use xlink:href="#DejaVuSans-19" transform="translate(159.03125 0)"/>
      </g>
     </g>
    </g>
    <g id="xtick_6">
     <g id="line2d_11">
      <path d="M 108.923369 209.681141 
L 108.923369 23.569031 
" clip-path="url(#p5f0f79ffe0)" style="fill: none; stroke: #ffffff; stroke-width: 0.5; stroke-linecap: square"/>
     </g>
    </g>
    <g id="xtick_7">
     <g id="line2d_12">
      <path d="M 214.667171 209.681141 
L 214.667171 23.569031 
" clip-path="url(#p5f0f79ffe0)" style="fill: none; stroke: #ffffff; stroke-width: 0.5; stroke-linecap: square"/>
     </g>
    </g>
    <g id="xtick_8">
     <g id="line2d_13">
      <path d="M 320.410973 209.681141 
L 320.410973 23.569031 
" clip-path="url(#p5f0f79ffe0)" style="fill: none; stroke: #ffffff; stroke-width: 0.5; stroke-linecap: square"/>
     </g>
    </g>
    <g id="xtick_9">
     <g id="line2d_14">
      <path d="M 426.154775 209.681141 
L 426.154775 23.569031 
" clip-path="url(#p5f0f79ffe0)" style="fill: none; stroke: #ffffff; stroke-width: 0.5; stroke-linecap: square"/>
     </g>
    </g>
   </g>
   <g id="matplotlib.axis_2">
    <g id="ytick_1">
     <g id="line2d_15">
      <path d="M 49.087484 164.946506 
L 513.216 164.946506 
" clip-path="url(#p5f0f79ffe0)" style="fill: none; stroke: #ffffff; stroke-linecap: square"/>
     </g>
     <g id="line2d_16">
      <path d="M 49.087484 164.946506 
" style="fill: none; stroke: #333333; stroke-width: 1.5; stroke-linecap: square"/>
      <defs>
       <path id="m01d318971e" d="M 0 0 
L -2.75 0 
" style="stroke: #333333"/>
      </defs>
      <g>
       <use xlink:href="#m01d318971e" x="49.087484" y="164.946506" style="fill: #333333; stroke: #333333"/>
      </g>
     </g>
     <g id="text_6">
      <!-- -0.25 -->
      <g style="fill: #4d4d4d" transform="translate(21.368859 168.289475) scale(0.088 -0.088)">
       <defs>
        <path id="DejaVuSans-15" d="M 1228 531 
L 3431 531 
L 3431 0 
L 469 0 
L 469 531 
Q 828 903 1448 1529 
Q 2069 2156 2228 2338 
Q 2531 2678 2651 2914 
Q 2772 3150 2772 3378 
Q 2772 3750 2511 3984 
Q 2250 4219 1831 4219 
Q 1534 4219 1204 4116 
Q 875 4013 500 3803 
L 500 4441 
Q 881 4594 1212 4672 
Q 1544 4750 1819 4750 
Q 2544 4750 2975 4387 
Q 3406 4025 3406 3419 
Q 3406 3131 3298 2873 
Q 3191 2616 2906 2266 
Q 2828 2175 2409 1742 
Q 1991 1309 1228 531 
z
" transform="scale(0.015625)"/>
        <path id="DejaVuSans-18" d="M 691 4666 
L 3169 4666 
L 3169 4134 
L 1269 4134 
L 1269 2991 
Q 1406 3038 1543 3061 
Q 1681 3084 1819 3084 
Q 2600 3084 3056 2656 
Q 3513 2228 3513 1497 
Q 3513 744 3044 326 
Q 2575 -91 1722 -91 
Q 1428 -91 1123 -41 
Q 819 9 494 109 
L 494 744 
Q 775 591 1075 516 
Q 1375 441 1709 441 
Q 2250 441 2565 725 
Q 2881 1009 2881 1497 
Q 2881 1984 2565 2268 
Q 2250 2553 1709 2553 
Q 1456 2553 1204 2497 
Q 953 2441 691 2322 
L 691 4666 
z
" transform="scale(0.015625)"/>
       </defs>
       <use xlink:href="#DejaVuSans-10"/>
       <use xlink:href="#DejaVuSans-13" transform="translate(36.078125 0)"/>
       <use xlink:href="#DejaVuSans-11" transform="translate(99.703125 0)"/>
       <use xlink:href="#DejaVuSans-15" transform="translate(131.484375 0)"/>
       <use xlink:href="#DejaVuSans-18" transform="translate(195.109375 0)"/>
      </g>
     </g>
    </g>
    <g id="ytick_2">
     <g id="line2d_17">
      <path d="M 49.087484 115.488513 
L 513.216 115.488513 
" clip-path="url(#p5f0f79ffe0)" style="fill: none; stroke: #ffffff; stroke-linecap: square"/>
     </g>
     <g id="line2d_18">
      <path d="M 49.087484 115.488513 
" style="fill: none; stroke: #333333; stroke-width: 1.5; stroke-linecap: square"/>
      <g>
       <use xlink:href="#m01d318971e" x="49.087484" y="115.488513" style="fill: #333333; stroke: #333333"/>
      </g>
     </g>
     <g id="text_7">
      <!-- 0.00 -->
      <g style="fill: #4d4d4d" transform="translate(24.543734 118.831482) scale(0.088 -0.088)">
       <use xlink:href="#DejaVuSans-13"/>
       <use xlink:href="#DejaVuSans-11" transform="translate(63.625 0)"/>
       <use xlink:href="#DejaVuSans-13" transform="translate(95.40625 0)"/>
       <use xlink:href="#DejaVuSans-13" transform="translate(159.03125 0)"/>
      </g>
     </g>
    </g>
    <g id="ytick_3">
     <g id="line2d_19">
      <path d="M 49.087484 66.03052 
L 513.216 66.03052 
" clip-path="url(#p5f0f79ffe0)" style="fill: none; stroke: #ffffff; stroke-linecap: square"/>
     </g>
     <g id="line2d_20">
      <path d="M 49.087484 66.03052 
" style="fill: none; stroke: #333333; stroke-width: 1.5; stroke-linecap: square"/>
      <g>
       <use xlink:href="#m01d318971e" x="49.087484" y="66.03052" style="fill: #333333; stroke: #333333"/>
      </g>
     </g>
     <g id="text_8">
      <!-- 0.25 -->
      <g style="fill: #4d4d4d" transform="translate(24.543734 69.373488) scale(0.088 -0.088)">
       <use xlink:href="#DejaVuSans-13"/>
       <use xlink:href="#DejaVuSans-11" transform="translate(63.625 0)"/>
       <use xlink:href="#DejaVuSans-15" transform="translate(95.40625 0)"/>
       <use xlink:href="#DejaVuSans-18" transform="translate(159.03125 0)"/>
      </g>
     </g>
    </g>
    <g id="ytick_4">
     <g id="line2d_21">
      <path d="M 49.087484 189.675503 
L 513.216 189.675503 
" clip-path="url(#p5f0f79ffe0)" style="fill: none; stroke: #ffffff; stroke-width: 0.5; stroke-linecap: square"/>
     </g>
    </g>
    <g id="ytick_5">
     <g id="line2d_22">
      <path d="M 49.087484 140.21751 
L 513.216 140.21751 
" clip-path="url(#p5f0f79ffe0)" style="fill: none; stroke: #ffffff; stroke-width: 0.5; stroke-linecap: square"/>
     </g>
    </g>
    <g id="ytick_6">
     <g id="line2d_23">
      <path d="M 49.087484 90.759516 
L 513.216 90.759516 
" clip-path="url(#p5f0f79ffe0)" style="fill: none; stroke: #ffffff; stroke-width: 0.5; stroke-linecap: square"/>
     </g>
    </g>
    <g id="ytick_7">
     <g id="line2d_24">
      <path d="M 49.087484 41.301523 
L 513.216 41.301523 
" clip-path="url(#p5f0f79ffe0)" style="fill: none; stroke: #ffffff; stroke-width: 0.5; stroke-linecap: square"/>
     </g>
    </g>
   </g>
   <g id="PathCollection_1">
    <path d="M 132.28324 193.514065 
C 132.7533 193.514065 133.204171 193.327308 133.536554 192.994925 
C 133.868937 192.662543 134.055694 192.211672 134.055694 191.741611 
C 134.055694 191.271551 133.868937 190.82068 133.536554 190.488297 
C 133.204171 190.155914 132.7533 189.969158 132.28324 189.969158 
C 131.81318 189.969158 131.362309 190.155914 131.029926 190.488297 
C 130.697543 190.82068 130.510786 191.271551 130.510786 191.741611 
C 130.510786 192.211672 130.697543 192.662543 131.029926 192.994925 
C 131.362309 193.327308 131.81318 193.514065 132.28324 193.514065 
z
" clip-path="url(#p5f0f79ffe0)" style="stroke: #000000; stroke-width: 0.886227"/>
    <path d="M 70.184235 151.205211 
C 70.654295 151.205211 71.105166 151.018454 71.437549 150.686071 
C 71.769932 150.353688 71.956689 149.902817 71.956689 149.432757 
C 71.956689 148.962697 71.769932 148.511826 71.437549 148.179443 
C 71.105166 147.84706 70.654295 147.660303 70.184235 147.660303 
C 69.714175 147.660303 69.263304 147.84706 68.930921 148.179443 
C 68.598538 148.511826 68.411781 148.962697 68.411781 149.432757 
C 68.411781 149.902817 68.598538 150.353688 68.930921 150.686071 
C 69.263304 151.018454 69.714175 151.205211 70.184235 151.205211 
z
" clip-path="url(#p5f0f79ffe0)" style="stroke: #000000; stroke-width: 0.886227"/>
    <path d="M 74.353852 97.943125 
C 74.823912 97.943125 75.274783 97.756369 75.607166 97.423986 
C 75.939549 97.091603 76.126306 96.640732 76.126306 96.170672 
C 76.126306 95.700611 75.939549 95.24974 75.607166 94.917357 
C 75.274783 94.584975 74.823912 94.398218 74.353852 94.398218 
C 73.883791 94.398218 73.43292 94.584975 73.100538 94.917357 
C 72.768155 95.24974 72.581398 95.700611 72.581398 96.170672 
C 72.581398 96.640732 72.768155 97.091603 73.100538 97.423986 
C 73.43292 97.756369 73.883791 97.943125 74.353852 97.943125 
z
" clip-path="url(#p5f0f79ffe0)" style="stroke: #000000; stroke-width: 0.886227"/>
    <path d="M 338.546152 102.018757 
C 339.016212 102.018757 339.467083 101.832 339.799466 101.499618 
C 340.131849 101.167235 340.318606 100.716364 340.318606 100.246303 
C 340.318606 99.776243 340.131849 99.325372 339.799466 98.992989 
C 339.467083 98.660606 339.016212 98.47385 338.546152 98.47385 
C 338.076092 98.47385 337.625221 98.660606 337.292838 98.992989 
C 336.960455 99.325372 336.773698 99.776243 336.773698 100.246303 
C 336.773698 100.716364 336.960455 101.167235 337.292838 101.499618 
C 337.625221 101.832 338.076092 102.018757 338.546152 102.018757 
z
" clip-path="url(#p5f0f79ffe0)" style="stroke: #000000; stroke-width: 0.886227"/>
    <path d="M 449.609579 33.801126 
C 450.079639 33.801126 450.53051 33.61437 450.862893 33.281987 
C 451.195276 32.949604 451.382033 32.498733 451.382033 32.028673 
C 451.382033 31.558612 451.195276 31.107741 450.862893 30.775358 
C 450.53051 30.442976 450.079639 30.256219 449.609579 30.256219 
C 449.139518 30.256219 448.688647 30.442976 448.356265 30.775358 
C 448.023882 31.107741 447.837125 31.558612 447.837125 32.028673 
C 447.837125 32.498733 448.023882 32.949604 448.356265 33.281987 
C 448.688647 33.61437 449.139518 33.801126 449.609579 33.801126 
z
" clip-path="url(#p5f0f79ffe0)" style="stroke: #000000; stroke-width: 0.886227"/>
    <path d="M 492.119249 104.250554 
C 492.58931 104.250554 493.040181 104.063797 493.372563 103.731414 
C 493.704946 103.399031 493.891703 102.94816 493.891703 102.4781 
C 493.891703 102.00804 493.704946 101.557169 493.372563 101.224786 
C 493.040181 100.892403 492.58931 100.705646 492.119249 100.705646 
C 491.649189 100.705646 491.198318 100.892403 490.865935 101.224786 
C 490.533552 101.557169 490.346795 102.00804 490.346795 102.4781 
C 490.346795 102.94816 490.533552 103.399031 490.865935 103.731414 
C 491.198318 104.063797 491.649189 104.250554 492.119249 104.250554 
z
" clip-path="url(#p5f0f79ffe0)" style="stroke: #000000; stroke-width: 0.886227"/>
    <path d="M 463.192144 202.993953 
C 463.662204 202.993953 464.113075 202.807196 464.445458 202.474813 
C 464.777841 202.142431 464.964598 201.69156 464.964598 201.221499 
C 464.964598 200.751439 464.777841 200.300568 464.445458 199.968185 
C 464.113075 199.635802 463.662204 199.449045 463.192144 199.449045 
C 462.722083 199.449045 462.271212 199.635802 461.93883 199.968185 
C 461.606447 200.300568 461.41969 200.751439 461.41969 201.221499 
C 461.41969 201.69156 461.606447 202.142431 461.93883 202.474813 
C 462.271212 202.807196 462.722083 202.993953 463.192144 202.993953 
z
" clip-path="url(#p5f0f79ffe0)" style="stroke: #000000; stroke-width: 0.886227"/>
    <path d="M 310.849149 80.103414 
C 311.319209 80.103414 311.77008 79.916657 312.102463 79.584275 
C 312.434846 79.251892 312.621603 78.801021 312.621603 78.330961 
C 312.621603 77.8609 312.434846 77.410029 312.102463 77.077646 
C 311.77008 76.745264 311.319209 76.558507 310.849149 76.558507 
C 310.379088 76.558507 309.928217 76.745264 309.595835 77.077646 
C 309.263452 77.410029 309.076695 77.8609 309.076695 78.330961 
C 309.076695 78.801021 309.263452 79.251892 309.595835 79.584275 
C 309.928217 79.916657 310.379088 80.103414 310.849149 80.103414 
z
" clip-path="url(#p5f0f79ffe0)" style="stroke: #000000; stroke-width: 0.886227"/>
    <path d="M 327.011072 94.59694 
C 327.481133 94.59694 327.932004 94.410183 328.264387 94.077801 
C 328.596769 93.745418 328.783526 93.294547 328.783526 92.824486 
C 328.783526 92.354426 328.596769 91.903555 328.264387 91.571172 
C 327.932004 91.238789 327.481133 91.052033 327.011072 91.052033 
C 326.541012 91.052033 326.090141 91.238789 325.757758 91.571172 
C 325.425376 91.903555 325.238619 92.354426 325.238619 92.824486 
C 325.238619 93.294547 325.425376 93.745418 325.757758 94.077801 
C 326.090141 94.410183 326.541012 94.59694 327.011072 94.59694 
z
" clip-path="url(#p5f0f79ffe0)" style="stroke: #000000; stroke-width: 0.886227"/>
    <path d="M 385.037071 111.428461 
C 385.507131 111.428461 385.958002 111.241704 386.290385 110.909322 
C 386.622768 110.576939 386.809524 110.126068 386.809524 109.656008 
C 386.809524 109.185947 386.622768 108.735076 386.290385 108.402693 
C 385.958002 108.070311 385.507131 107.883554 385.037071 107.883554 
C 384.56701 107.883554 384.116139 108.070311 383.783756 108.402693 
C 383.451374 108.735076 383.264617 109.185947 383.264617 109.656008 
C 383.264617 110.126068 383.451374 110.576939 383.783756 110.909322 
C 384.116139 111.241704 384.56701 111.428461 385.037071 111.428461 
z
" clip-path="url(#p5f0f79ffe0)" style="stroke: #000000; stroke-width: 0.886227"/>
    <path d="M 409.834609 167.563924 
C 410.30467 167.563924 410.755541 167.377167 411.087924 167.044784 
C 411.420306 166.712401 411.607063 166.26153 411.607063 165.79147 
C 411.607063 165.32141 411.420306 164.870539 411.087924 164.538156 
C 410.755541 164.205773 410.30467 164.019016 409.834609 164.019016 
C 409.364549 164.019016 408.913678 164.205773 408.581295 164.538156 
C 408.248912 164.870539 408.062156 165.32141 408.062156 165.79147 
C 408.062156 166.26153 408.248912 166.712401 408.581295 167.044784 
C 408.913678 167.377167 409.364549 167.563924 409.834609 167.563924 
z
" clip-path="url(#p5f0f79ffe0)" style="stroke: #000000; stroke-width: 0.886227"/>
    <path d="M 367.676886 133.313152 
C 368.146946 133.313152 368.597817 133.126395 368.9302 132.794012 
C 369.262583 132.461629 369.44934 132.010758 369.44934 131.540698 
C 369.44934 131.070638 369.262583 130.619767 368.9302 130.287384 
C 368.597817 129.955001 368.146946 129.768244 367.676886 129.768244 
C 367.206826 129.768244 366.755955 129.955001 366.423572 130.287384 
C 366.091189 130.619767 365.904432 131.070638 365.904432 131.540698 
C 365.904432 132.010758 366.091189 132.461629 366.423572 132.794012 
C 366.755955 133.126395 367.206826 133.313152 367.676886 133.313152 
z
" clip-path="url(#p5f0f79ffe0)" style="stroke: #000000; stroke-width: 0.886227"/>
    <path d="M 310.970883 115.045156 
C 311.440944 115.045156 311.891815 114.858399 312.224197 114.526016 
C 312.55658 114.193634 312.743337 113.742762 312.743337 113.272702 
C 312.743337 112.802642 312.55658 112.351771 312.224197 112.019388 
C 311.891815 111.687005 311.440944 111.500248 310.970883 111.500248 
C 310.500823 111.500248 310.049952 111.687005 309.717569 112.019388 
C 309.385186 112.351771 309.198429 112.802642 309.198429 113.272702 
C 309.198429 113.742762 309.385186 114.193634 309.717569 114.526016 
C 310.049952 114.858399 310.500823 115.045156 310.970883 115.045156 
z
" clip-path="url(#p5f0f79ffe0)" style="stroke: #000000; stroke-width: 0.886227"/>
    <path d="M 332.402559 122.429526 
C 332.872619 122.429526 333.32349 122.242769 333.655873 121.910386 
C 333.988256 121.578003 334.175013 121.127132 334.175013 120.657072 
C 334.175013 120.187012 333.988256 119.736141 333.655873 119.403758 
C 333.32349 119.071375 332.872619 118.884618 332.402559 118.884618 
C 331.932498 118.884618 331.481627 119.071375 331.149245 119.403758 
C 330.816862 119.736141 330.630105 120.187012 330.630105 120.657072 
C 330.630105 121.127132 330.816862 121.578003 331.149245 121.910386 
C 331.481627 122.242769 331.932498 122.429526 332.402559 122.429526 
z
" clip-path="url(#p5f0f79ffe0)" style="stroke: #000000; stroke-width: 0.886227"/>
    <path d="M 385.347519 109.4284 
C 385.81758 109.4284 386.268451 109.241643 386.600833 108.90926 
C 386.933216 108.576877 387.119973 108.126006 387.119973 107.655946 
C 387.119973 107.185886 386.933216 106.735015 386.600833 106.402632 
C 386.268451 106.070249 385.81758 105.883492 385.347519 105.883492 
C 384.877459 105.883492 384.426588 106.070249 384.094205 106.402632 
C 383.761822 106.735015 383.575065 107.185886 383.575065 107.655946 
C 383.575065 108.126006 383.761822 108.576877 384.094205 108.90926 
C 384.426588 109.241643 384.877459 109.4284 385.347519 109.4284 
z
" clip-path="url(#p5f0f79ffe0)" style="stroke: #000000; stroke-width: 0.886227"/>
    <path d="M 456.512516 98.234575 
C 456.982577 98.234575 457.433448 98.047818 457.76583 97.715435 
C 458.098213 97.383052 458.28497 96.932181 458.28497 96.462121 
C 458.28497 95.992061 458.098213 95.54119 457.76583 95.208807 
C 457.433448 94.876424 456.982577 94.689667 456.512516 94.689667 
C 456.042456 94.689667 455.591585 94.876424 455.259202 95.208807 
C 454.926819 95.54119 454.740062 95.992061 454.740062 96.462121 
C 454.740062 96.932181 454.926819 97.383052 455.259202 97.715435 
C 455.591585 98.047818 456.042456 98.234575 456.512516 98.234575 
z
" clip-path="url(#p5f0f79ffe0)" style="stroke: #000000; stroke-width: 0.886227"/>
    <path d="M 336.558815 102.947028 
C 337.028875 102.947028 337.479746 102.760271 337.812129 102.427888 
C 338.144512 102.095505 338.331269 101.644634 338.331269 101.174574 
C 338.331269 100.704513 338.144512 100.253642 337.812129 99.92126 
C 337.479746 99.588877 337.028875 99.40212 336.558815 99.40212 
C 336.088755 99.40212 335.637884 99.588877 335.305501 99.92126 
C 334.973118 100.253642 334.786361 100.704513 334.786361 101.174574 
C 334.786361 101.644634 334.973118 102.095505 335.305501 102.427888 
C 335.637884 102.760271 336.088755 102.947028 336.558815 102.947028 
z
" clip-path="url(#p5f0f79ffe0)" style="stroke: #000000; stroke-width: 0.886227"/>
    <path d="M 223.494819 100.355572 
C 223.964879 100.355572 224.41575 100.168815 224.748133 99.836433 
C 225.080515 99.50405 225.267272 99.053179 225.267272 98.583118 
C 225.267272 98.113058 225.080515 97.662187 224.748133 97.329804 
C 224.41575 96.997421 223.964879 96.810665 223.494819 96.810665 
C 223.024758 96.810665 222.573887 96.997421 222.241504 97.329804 
C 221.909122 97.662187 221.722365 98.113058 221.722365 98.583118 
C 221.722365 99.053179 221.909122 99.50405 222.241504 99.836433 
C 222.573887 100.168815 223.024758 100.355572 223.494819 100.355572 
z
" clip-path="url(#p5f0f79ffe0)" style="stroke: #000000; stroke-width: 0.886227"/>
    <path d="M 262.890535 78.156967 
C 263.360595 78.156967 263.811467 77.97021 264.143849 77.637828 
C 264.476232 77.305445 264.662989 76.854574 264.662989 76.384513 
C 264.662989 75.914453 264.476232 75.463582 264.143849 75.131199 
C 263.811467 74.798816 263.360595 74.61206 262.890535 74.61206 
C 262.420475 74.61206 261.969604 74.798816 261.637221 75.131199 
C 261.304838 75.463582 261.118081 75.914453 261.118081 76.384513 
C 261.118081 76.854574 261.304838 77.305445 261.637221 77.637828 
C 261.969604 77.97021 262.420475 78.156967 262.890535 78.156967 
z
" clip-path="url(#p5f0f79ffe0)" style="stroke: #000000; stroke-width: 0.886227"/>
    <path d="M 303.552164 134.248 
C 304.022224 134.248 304.473095 134.061243 304.805478 133.72886 
C 305.137861 133.396477 305.324618 132.945606 305.324618 132.475546 
C 305.324618 132.005486 305.137861 131.554615 304.805478 131.222232 
C 304.473095 130.889849 304.022224 130.703092 303.552164 130.703092 
C 303.082104 130.703092 302.631233 130.889849 302.29885 131.222232 
C 301.966467 131.554615 301.77971 132.005486 301.77971 132.475546 
C 301.77971 132.945606 301.966467 133.396477 302.29885 133.72886 
C 302.631233 134.061243 303.082104 134.248 303.552164 134.248 
z
" clip-path="url(#p5f0f79ffe0)" style="stroke: #000000; stroke-width: 0.886227"/>
    <path d="M 325.866292 119.118825 
C 326.336352 119.118825 326.787223 118.932068 327.119606 118.599686 
C 327.451989 118.267303 327.638746 117.816432 327.638746 117.346371 
C 327.638746 116.876311 327.451989 116.42544 327.119606 116.093057 
C 326.787223 115.760675 326.336352 115.573918 325.866292 115.573918 
C 325.396232 115.573918 324.94536 115.760675 324.612978 116.093057 
C 324.280595 116.42544 324.093838 116.876311 324.093838 117.346371 
C 324.093838 117.816432 324.280595 118.267303 324.612978 118.599686 
C 324.94536 118.932068 325.396232 119.118825 325.866292 119.118825 
z
" clip-path="url(#p5f0f79ffe0)" style="stroke: #000000; stroke-width: 0.886227"/>
    <path d="M 330.273723 115.097947 
C 330.743783 115.097947 331.194655 114.91119 331.527037 114.578807 
C 331.85942 114.246425 332.046177 113.795553 332.046177 113.325493 
C 332.046177 112.855433 331.85942 112.404562 331.527037 112.072179 
C 331.194655 111.739796 330.743783 111.553039 330.273723 111.553039 
C 329.803663 111.553039 329.352792 111.739796 329.020409 112.072179 
C 328.688026 112.404562 328.501269 112.855433 328.501269 113.325493 
C 328.501269 113.795553 328.688026 114.246425 329.020409 114.578807 
C 329.352792 114.91119 329.803663 115.097947 330.273723 115.097947 
z
" clip-path="url(#p5f0f79ffe0)" style="stroke: #000000; stroke-width: 0.886227"/>
    <path d="M 338.103794 107.469515 
C 338.573854 107.469515 339.024725 107.282758 339.357108 106.950375 
C 339.689491 106.617993 339.876248 106.167121 339.876248 105.697061 
C 339.876248 105.227001 339.689491 104.77613 339.357108 104.443747 
C 339.024725 104.111364 338.573854 103.924607 338.103794 103.924607 
C 337.633734 103.924607 337.182863 104.111364 336.85048 104.443747 
C 336.518097 104.77613 336.33134 105.227001 336.33134 105.697061 
C 336.33134 106.167121 336.518097 106.617993 336.85048 106.950375 
C 337.182863 107.282758 337.633734 107.469515 338.103794 107.469515 
z
" clip-path="url(#p5f0f79ffe0)" style="stroke: #000000; stroke-width: 0.886227"/>
    <path d="M 307.528457 95.484278 
C 307.998518 95.484278 308.449389 95.297521 308.781771 94.965138 
C 309.114154 94.632755 309.300911 94.181884 309.300911 93.711824 
C 309.300911 93.241764 309.114154 92.790893 308.781771 92.45851 
C 308.449389 92.126127 307.998518 91.93937 307.528457 91.93937 
C 307.058397 91.93937 306.607526 92.126127 306.275143 92.45851 
C 305.94276 92.790893 305.756003 93.241764 305.756003 93.711824 
C 305.756003 94.181884 305.94276 94.632755 306.275143 94.965138 
C 306.607526 95.297521 307.058397 95.484278 307.528457 95.484278 
z
" clip-path="url(#p5f0f79ffe0)" style="stroke: #000000; stroke-width: 0.886227"/>
    <path d="M 333.339364 106.962324 
C 333.809424 106.962324 334.260295 106.775567 334.592678 106.443184 
C 334.925061 106.110802 335.111817 105.65993 335.111817 105.18987 
C 335.111817 104.71981 334.925061 104.268939 334.592678 103.936556 
C 334.260295 103.604173 333.809424 103.417416 333.339364 103.417416 
C 332.869303 103.417416 332.418432 103.604173 332.086049 103.936556 
C 331.753667 104.268939 331.56691 104.71981 331.56691 105.18987 
C 331.56691 105.65993 331.753667 106.110802 332.086049 106.443184 
C 332.418432 106.775567 332.869303 106.962324 333.339364 106.962324 
z
" clip-path="url(#p5f0f79ffe0)" style="stroke: #000000; stroke-width: 0.886227"/>
    <path d="M 362.466818 116.355923 
C 362.936878 116.355923 363.387749 116.169166 363.720132 115.836784 
C 364.052515 115.504401 364.239272 115.05353 364.239272 114.583469 
C 364.239272 114.113409 364.052515 113.662538 363.720132 113.330155 
C 363.387749 112.997773 362.936878 112.811016 362.466818 112.811016 
C 361.996758 112.811016 361.545887 112.997773 361.213504 113.330155 
C 360.881121 113.662538 360.694364 114.113409 360.694364 114.583469 
C 360.694364 115.05353 360.881121 115.504401 361.213504 115.836784 
C 361.545887 116.169166 361.996758 116.355923 362.466818 116.355923 
z
" clip-path="url(#p5f0f79ffe0)" style="stroke: #000000; stroke-width: 0.886227"/>
    <path d="M 318.050167 128.557289 
C 318.520228 128.557289 318.971099 128.370532 319.303481 128.038149 
C 319.635864 127.705766 319.822621 127.254895 319.822621 126.784835 
C 319.822621 126.314775 319.635864 125.863903 319.303481 125.531521 
C 318.971099 125.199138 318.520228 125.012381 318.050167 125.012381 
C 317.580107 125.012381 317.129236 125.199138 316.796853 125.531521 
C 316.46447 125.863903 316.277713 126.314775 316.277713 126.784835 
C 316.277713 127.254895 316.46447 127.705766 316.796853 128.038149 
C 317.129236 128.370532 317.580107 128.557289 318.050167 128.557289 
z
" clip-path="url(#p5f0f79ffe0)" style="stroke: #000000; stroke-width: 0.886227"/>
    <path d="M 286.724363 111.549203 
C 287.194423 111.549203 287.645294 111.362446 287.977677 111.030063 
C 288.310059 110.69768 288.496816 110.246809 288.496816 109.776749 
C 288.496816 109.306689 288.310059 108.855818 287.977677 108.523435 
C 287.645294 108.191052 287.194423 108.004295 286.724363 108.004295 
C 286.254302 108.004295 285.803431 108.191052 285.471048 108.523435 
C 285.138666 108.855818 284.951909 109.306689 284.951909 109.776749 
C 284.951909 110.246809 285.138666 110.69768 285.471048 111.030063 
C 285.803431 111.362446 286.254302 111.549203 286.724363 111.549203 
z
" clip-path="url(#p5f0f79ffe0)" style="stroke: #000000; stroke-width: 0.886227"/>
    <path d="M 324.948663 115.106452 
C 325.418724 115.106452 325.869595 114.919695 326.201977 114.587312 
C 326.53436 114.254929 326.721117 113.804058 326.721117 113.333998 
C 326.721117 112.863938 326.53436 112.413067 326.201977 112.080684 
C 325.869595 111.748301 325.418724 111.561544 324.948663 111.561544 
C 324.478603 111.561544 324.027732 111.748301 323.695349 112.080684 
C 323.362966 112.413067 323.176209 112.863938 323.176209 113.333998 
C 323.176209 113.804058 323.362966 114.254929 323.695349 114.587312 
C 324.027732 114.919695 324.478603 115.106452 324.948663 115.106452 
z
" clip-path="url(#p5f0f79ffe0)" style="stroke: #000000; stroke-width: 0.886227"/>
    <path d="M 326.566268 112.986826 
C 327.036329 112.986826 327.4872 112.800069 327.819583 112.467686 
C 328.151965 112.135303 328.338722 111.684432 328.338722 111.214372 
C 328.338722 110.744312 328.151965 110.293441 327.819583 109.961058 
C 327.4872 109.628675 327.036329 109.441918 326.566268 109.441918 
C 326.096208 109.441918 325.645337 109.628675 325.312954 109.961058 
C 324.980572 110.293441 324.793815 110.744312 324.793815 111.214372 
C 324.793815 111.684432 324.980572 112.135303 325.312954 112.467686 
C 325.645337 112.800069 326.096208 112.986826 326.566268 112.986826 
z
" clip-path="url(#p5f0f79ffe0)" style="stroke: #000000; stroke-width: 0.886227"/>
    <path d="M 293.128079 109.305848 
C 293.598139 109.305848 294.049011 109.119091 294.381393 108.786708 
C 294.713776 108.454326 294.900533 108.003455 294.900533 107.533394 
C 294.900533 107.063334 294.713776 106.612463 294.381393 106.28008 
C 294.049011 105.947697 293.598139 105.76094 293.128079 105.76094 
C 292.658019 105.76094 292.207148 105.947697 291.874765 106.28008 
C 291.542382 106.612463 291.355625 107.063334 291.355625 107.533394 
C 291.355625 108.003455 291.542382 108.454326 291.874765 108.786708 
C 292.207148 109.119091 292.658019 109.305848 293.128079 109.305848 
z
" clip-path="url(#p5f0f79ffe0)" style="stroke: #000000; stroke-width: 0.886227"/>
    <path d="M 322.362325 108.218105 
C 322.832385 108.218105 323.283256 108.031348 323.615639 107.698965 
C 323.948021 107.366583 324.134778 106.915712 324.134778 106.445651 
C 324.134778 105.975591 323.948021 105.52472 323.615639 105.192337 
C 323.283256 104.859954 322.832385 104.673198 322.362325 104.673198 
C 321.892264 104.673198 321.441393 104.859954 321.10901 105.192337 
C 320.776628 105.52472 320.589871 105.975591 320.589871 106.445651 
C 320.589871 106.915712 320.776628 107.366583 321.10901 107.698965 
C 321.441393 108.031348 321.892264 108.218105 322.362325 108.218105 
z
" clip-path="url(#p5f0f79ffe0)" style="stroke: #000000; stroke-width: 0.886227"/>
    <path d="M 331.415719 104.013724 
C 331.885779 104.013724 332.33665 103.826967 332.669033 103.494584 
C 333.001416 103.162201 333.188173 102.71133 333.188173 102.24127 
C 333.188173 101.771209 333.001416 101.320338 332.669033 100.987956 
C 332.33665 100.655573 331.885779 100.468816 331.415719 100.468816 
C 330.945659 100.468816 330.494788 100.655573 330.162405 100.987956 
C 329.830022 101.320338 329.643265 101.771209 329.643265 102.24127 
C 329.643265 102.71133 329.830022 103.162201 330.162405 103.494584 
C 330.494788 103.826967 330.945659 104.013724 331.415719 104.013724 
z
" clip-path="url(#p5f0f79ffe0)" style="stroke: #000000; stroke-width: 0.886227"/>
    <path d="M 358.96559 101.989812 
C 359.435651 101.989812 359.886522 101.803055 360.218904 101.470672 
C 360.551287 101.138289 360.738044 100.687418 360.738044 100.217358 
C 360.738044 99.747297 360.551287 99.296426 360.218904 98.964044 
C 359.886522 98.631661 359.435651 98.444904 358.96559 98.444904 
C 358.49553 98.444904 358.044659 98.631661 357.712276 98.964044 
C 357.379893 99.296426 357.193136 99.747297 357.193136 100.217358 
C 357.193136 100.687418 357.379893 101.138289 357.712276 101.470672 
C 358.044659 101.803055 358.49553 101.989812 358.96559 101.989812 
z
" clip-path="url(#p5f0f79ffe0)" style="stroke: #000000; stroke-width: 0.886227"/>
    <path d="M 400.583181 110.476287 
C 401.053241 110.476287 401.504112 110.28953 401.836495 109.957147 
C 402.168878 109.624764 402.355635 109.173893 402.355635 108.703833 
C 402.355635 108.233772 402.168878 107.782901 401.836495 107.450519 
C 401.504112 107.118136 401.053241 106.931379 400.583181 106.931379 
C 400.113121 106.931379 399.66225 107.118136 399.329867 107.450519 
C 398.997484 107.782901 398.810727 108.233772 398.810727 108.703833 
C 398.810727 109.173893 398.997484 109.624764 399.329867 109.957147 
C 399.66225 110.28953 400.113121 110.476287 400.583181 110.476287 
z
" clip-path="url(#p5f0f79ffe0)" style="stroke: #000000; stroke-width: 0.886227"/>
    <path d="M 406.486006 116.835145 
C 406.956067 116.835145 407.406938 116.648388 407.739321 116.316005 
C 408.071703 115.983622 408.25846 115.532751 408.25846 115.062691 
C 408.25846 114.592631 408.071703 114.141759 407.739321 113.809377 
C 407.406938 113.476994 406.956067 113.290237 406.486006 113.290237 
C 406.015946 113.290237 405.565075 113.476994 405.232692 113.809377 
C 404.900309 114.141759 404.713553 114.592631 404.713553 115.062691 
C 404.713553 115.532751 404.900309 115.983622 405.232692 116.316005 
C 405.565075 116.648388 406.015946 116.835145 406.486006 116.835145 
z
" clip-path="url(#p5f0f79ffe0)" style="stroke: #000000; stroke-width: 0.886227"/>
    <path d="M 370.204525 114.81212 
C 370.674586 114.81212 371.125457 114.625364 371.457839 114.292981 
C 371.790222 113.960598 371.976979 113.509727 371.976979 113.039667 
C 371.976979 112.569606 371.790222 112.118735 371.457839 111.786353 
C 371.125457 111.45397 370.674586 111.267213 370.204525 111.267213 
C 369.734465 111.267213 369.283594 111.45397 368.951211 111.786353 
C 368.618828 112.118735 368.432071 112.569606 368.432071 113.039667 
C 368.432071 113.509727 368.618828 113.960598 368.951211 114.292981 
C 369.283594 114.625364 369.734465 114.81212 370.204525 114.81212 
z
" clip-path="url(#p5f0f79ffe0)" style="stroke: #000000; stroke-width: 0.886227"/>
    <path d="M 362.256686 118.101272 
C 362.726746 118.101272 363.177617 117.914515 363.51 117.582132 
C 363.842383 117.24975 364.02914 116.798879 364.02914 116.328818 
C 364.02914 115.858758 363.842383 115.407887 363.51 115.075504 
C 363.177617 114.743121 362.726746 114.556364 362.256686 114.556364 
C 361.786626 114.556364 361.335755 114.743121 361.003372 115.075504 
C 360.670989 115.407887 360.484232 115.858758 360.484232 116.328818 
C 360.484232 116.798879 360.670989 117.24975 361.003372 117.582132 
C 361.335755 117.914515 361.786626 118.101272 362.256686 118.101272 
z
" clip-path="url(#p5f0f79ffe0)" style="stroke: #000000; stroke-width: 0.886227"/>
    <path d="M 372.831041 134.340336 
C 373.301101 134.340336 373.751972 134.153579 374.084355 133.821196 
C 374.416738 133.488813 374.603495 133.037942 374.603495 132.567882 
C 374.603495 132.097822 374.416738 131.646951 374.084355 131.314568 
C 373.751972 130.982185 373.301101 130.795428 372.831041 130.795428 
C 372.360981 130.795428 371.910109 130.982185 371.577727 131.314568 
C 371.245344 131.646951 371.058587 132.097822 371.058587 132.567882 
C 371.058587 133.037942 371.245344 133.488813 371.577727 133.821196 
C 371.910109 134.153579 372.360981 134.340336 372.831041 134.340336 
z
" clip-path="url(#p5f0f79ffe0)" style="stroke: #000000; stroke-width: 0.886227"/>
    <path d="M 340.53501 127.176763 
C 341.00507 127.176763 341.455941 126.990006 341.788324 126.657623 
C 342.120707 126.325241 342.307464 125.87437 342.307464 125.404309 
C 342.307464 124.934249 342.120707 124.483378 341.788324 124.150995 
C 341.455941 123.818612 341.00507 123.631855 340.53501 123.631855 
C 340.06495 123.631855 339.614079 123.818612 339.281696 124.150995 
C 338.949313 124.483378 338.762556 124.934249 338.762556 125.404309 
C 338.762556 125.87437 338.949313 126.325241 339.281696 126.657623 
C 339.614079 126.990006 340.06495 127.176763 340.53501 127.176763 
z
" clip-path="url(#p5f0f79ffe0)" style="stroke: #000000; stroke-width: 0.886227"/>
    <path d="M 320.149017 120.196286 
C 320.619077 120.196286 321.069948 120.009529 321.402331 119.677146 
C 321.734714 119.344763 321.92147 118.893892 321.92147 118.423832 
C 321.92147 117.953772 321.734714 117.5029 321.402331 117.170518 
C 321.069948 116.838135 320.619077 116.651378 320.149017 116.651378 
C 319.678956 116.651378 319.228085 116.838135 318.895702 117.170518 
C 318.56332 117.5029 318.376563 117.953772 318.376563 118.423832 
C 318.376563 118.893892 318.56332 119.344763 318.895702 119.677146 
C 319.228085 120.009529 319.678956 120.196286 320.149017 120.196286 
z
" clip-path="url(#p5f0f79ffe0)" style="stroke: #000000; stroke-width: 0.886227"/>
    <path d="M 352.634905 121.936773 
C 353.104965 121.936773 353.555837 121.750016 353.888219 121.417634 
C 354.220602 121.085251 354.407359 120.63438 354.407359 120.16432 
C 354.407359 119.694259 354.220602 119.243388 353.888219 118.911005 
C 353.555837 118.578623 353.104965 118.391866 352.634905 118.391866 
C 352.164845 118.391866 351.713974 118.578623 351.381591 118.911005 
C 351.049208 119.243388 350.862451 119.694259 350.862451 120.16432 
C 350.862451 120.63438 351.049208 121.085251 351.381591 121.417634 
C 351.713974 121.750016 352.164845 121.936773 352.634905 121.936773 
z
" clip-path="url(#p5f0f79ffe0)" style="stroke: #000000; stroke-width: 0.886227"/>
    <path d="M 377.211697 120.811065 
C 377.681757 120.811065 378.132628 120.624308 378.465011 120.291925 
C 378.797394 119.959542 378.984151 119.508671 378.984151 119.038611 
C 378.984151 118.56855 378.797394 118.117679 378.465011 117.785297 
C 378.132628 117.452914 377.681757 117.266157 377.211697 117.266157 
C 376.741637 117.266157 376.290766 117.452914 375.958383 117.785297 
C 375.626 118.117679 375.439243 118.56855 375.439243 119.038611 
C 375.439243 119.508671 375.626 119.959542 375.958383 120.291925 
C 376.290766 120.624308 376.741637 120.811065 377.211697 120.811065 
z
" clip-path="url(#p5f0f79ffe0)" style="stroke: #000000; stroke-width: 0.886227"/>
    <path d="M 287.986835 128.542081 
C 288.456895 128.542081 288.907766 128.355324 289.240149 128.022941 
C 289.572532 127.690559 289.759289 127.239688 289.759289 126.769627 
C 289.759289 126.299567 289.572532 125.848696 289.240149 125.516313 
C 288.907766 125.18393 288.456895 124.997174 287.986835 124.997174 
C 287.516775 124.997174 287.065903 125.18393 286.733521 125.516313 
C 286.401138 125.848696 286.214381 126.299567 286.214381 126.769627 
C 286.214381 127.239688 286.401138 127.690559 286.733521 128.022941 
C 287.065903 128.355324 287.516775 128.542081 287.986835 128.542081 
z
" clip-path="url(#p5f0f79ffe0)" style="stroke: #000000; stroke-width: 0.886227"/>
    <path d="M 261.67684 106.031502 
C 262.1469 106.031502 262.597772 105.844745 262.930154 105.512363 
C 263.262537 105.17998 263.449294 104.729109 263.449294 104.259049 
C 263.449294 103.788988 263.262537 103.338117 262.930154 103.005734 
C 262.597772 102.673352 262.1469 102.486595 261.67684 102.486595 
C 261.20678 102.486595 260.755909 102.673352 260.423526 103.005734 
C 260.091143 103.338117 259.904386 103.788988 259.904386 104.259049 
C 259.904386 104.729109 260.091143 105.17998 260.423526 105.512363 
C 260.755909 105.844745 261.20678 106.031502 261.67684 106.031502 
z
" clip-path="url(#p5f0f79ffe0)" style="stroke: #000000; stroke-width: 0.886227"/>
    <path d="M 349.064601 101.962089 
C 349.534661 101.962089 349.985532 101.775332 350.317915 101.442949 
C 350.650298 101.110567 350.837055 100.659695 350.837055 100.189635 
C 350.837055 99.719575 350.650298 99.268704 350.317915 98.936321 
C 349.985532 98.603938 349.534661 98.417181 349.064601 98.417181 
C 348.59454 98.417181 348.143669 98.603938 347.811287 98.936321 
C 347.478904 99.268704 347.292147 99.719575 347.292147 100.189635 
C 347.292147 100.659695 347.478904 101.110567 347.811287 101.442949 
C 348.143669 101.775332 348.59454 101.962089 349.064601 101.962089 
z
" clip-path="url(#p5f0f79ffe0)" style="stroke: #000000; stroke-width: 0.886227"/>
    <path d="M 365.002487 109.093371 
C 365.472547 109.093371 365.923418 108.906614 366.255801 108.574232 
C 366.588184 108.241849 366.774941 107.790978 366.774941 107.320917 
C 366.774941 106.850857 366.588184 106.399986 366.255801 106.067603 
C 365.923418 105.73522 365.472547 105.548464 365.002487 105.548464 
C 364.532427 105.548464 364.081555 105.73522 363.749173 106.067603 
C 363.41679 106.399986 363.230033 106.850857 363.230033 107.320917 
C 363.230033 107.790978 363.41679 108.241849 363.749173 108.574232 
C 364.081555 108.906614 364.532427 109.093371 365.002487 109.093371 
z
" clip-path="url(#p5f0f79ffe0)" style="stroke: #000000; stroke-width: 0.886227"/>
    <path d="M 355.15589 109.65381 
C 355.625951 109.65381 356.076822 109.467053 356.409205 109.13467 
C 356.741587 108.802287 356.928344 108.351416 356.928344 107.881356 
C 356.928344 107.411296 356.741587 106.960425 356.409205 106.628042 
C 356.076822 106.295659 355.625951 106.108902 355.15589 106.108902 
C 354.68583 106.108902 354.234959 106.295659 353.902576 106.628042 
C 353.570194 106.960425 353.383437 107.411296 353.383437 107.881356 
C 353.383437 108.351416 353.570194 108.802287 353.902576 109.13467 
C 354.234959 109.467053 354.68583 109.65381 355.15589 109.65381 
z
" clip-path="url(#p5f0f79ffe0)" style="stroke: #000000; stroke-width: 0.886227"/>
    <path d="M 348.06713 117.167449 
C 348.53719 117.167449 348.988061 116.980692 349.320444 116.648309 
C 349.652827 116.315927 349.839584 115.865056 349.839584 115.394995 
C 349.839584 114.924935 349.652827 114.474064 349.320444 114.141681 
C 348.988061 113.809298 348.53719 113.622541 348.06713 113.622541 
C 347.59707 113.622541 347.146199 113.809298 346.813816 114.141681 
C 346.481433 114.474064 346.294676 114.924935 346.294676 115.394995 
C 346.294676 115.865056 346.481433 116.315927 346.813816 116.648309 
C 347.146199 116.980692 347.59707 117.167449 348.06713 117.167449 
z
" clip-path="url(#p5f0f79ffe0)" style="stroke: #000000; stroke-width: 0.886227"/>
    <path d="M 287.693322 118.931666 
C 288.163382 118.931666 288.614254 118.744909 288.946636 118.412526 
C 289.279019 118.080144 289.465776 117.629273 289.465776 117.159212 
C 289.465776 116.689152 289.279019 116.238281 288.946636 115.905898 
C 288.614254 115.573515 288.163382 115.386759 287.693322 115.386759 
C 287.223262 115.386759 286.772391 115.573515 286.440008 115.905898 
C 286.107625 116.238281 285.920868 116.689152 285.920868 117.159212 
C 285.920868 117.629273 286.107625 118.080144 286.440008 118.412526 
C 286.772391 118.744909 287.223262 118.931666 287.693322 118.931666 
z
" clip-path="url(#p5f0f79ffe0)" style="stroke: #000000; stroke-width: 0.886227"/>
    <path d="M 265.397526 118.511753 
C 265.867587 118.511753 266.318458 118.324996 266.65084 117.992614 
C 266.983223 117.660231 267.16998 117.20936 267.16998 116.7393 
C 267.16998 116.269239 266.983223 115.818368 266.65084 115.485985 
C 266.318458 115.153603 265.867587 114.966846 265.397526 114.966846 
C 264.927466 114.966846 264.476595 115.153603 264.144212 115.485985 
C 263.811829 115.818368 263.625072 116.269239 263.625072 116.7393 
C 263.625072 117.20936 263.811829 117.660231 264.144212 117.992614 
C 264.476595 118.324996 264.927466 118.511753 265.397526 118.511753 
z
" clip-path="url(#p5f0f79ffe0)" style="stroke: #000000; stroke-width: 0.886227"/>
    <path d="M 283.9961 119.474357 
C 284.46616 119.474357 284.917031 119.2876 285.249414 118.955217 
C 285.581797 118.622834 285.768553 118.171963 285.768553 117.701903 
C 285.768553 117.231843 285.581797 116.780971 285.249414 116.448589 
C 284.917031 116.116206 284.46616 115.929449 283.9961 115.929449 
C 283.526039 115.929449 283.075168 116.116206 282.742785 116.448589 
C 282.410403 116.780971 282.223646 117.231843 282.223646 117.701903 
C 282.223646 118.171963 282.410403 118.622834 282.742785 118.955217 
C 283.075168 119.2876 283.526039 119.474357 283.9961 119.474357 
z
" clip-path="url(#p5f0f79ffe0)" style="stroke: #000000; stroke-width: 0.886227"/>
    <path d="M 332.423918 115.892429 
C 332.893978 115.892429 333.344849 115.705672 333.677232 115.37329 
C 334.009615 115.040907 334.196372 114.590036 334.196372 114.119976 
C 334.196372 113.649915 334.009615 113.199044 333.677232 112.866661 
C 333.344849 112.534279 332.893978 112.347522 332.423918 112.347522 
C 331.953857 112.347522 331.502986 112.534279 331.170604 112.866661 
C 330.838221 113.199044 330.651464 113.649915 330.651464 114.119976 
C 330.651464 114.590036 330.838221 115.040907 331.170604 115.37329 
C 331.502986 115.705672 331.953857 115.892429 332.423918 115.892429 
z
" clip-path="url(#p5f0f79ffe0)" style="stroke: #000000; stroke-width: 0.886227"/>
    <path d="M 376.44834 111.356259 
C 376.9184 111.356259 377.369271 111.169502 377.701654 110.837119 
C 378.034037 110.504737 378.220793 110.053866 378.220793 109.583805 
C 378.220793 109.113745 378.034037 108.662874 377.701654 108.330491 
C 377.369271 107.998108 376.9184 107.811351 376.44834 107.811351 
C 375.978279 107.811351 375.527408 107.998108 375.195025 108.330491 
C 374.862643 108.662874 374.675886 109.113745 374.675886 109.583805 
C 374.675886 110.053866 374.862643 110.504737 375.195025 110.837119 
C 375.527408 111.169502 375.978279 111.356259 376.44834 111.356259 
z
" clip-path="url(#p5f0f79ffe0)" style="stroke: #000000; stroke-width: 0.886227"/>
    <path d="M 374.630058 106.170253 
C 375.100118 106.170253 375.550989 105.983496 375.883372 105.651113 
C 376.215755 105.31873 376.402512 104.867859 376.402512 104.397799 
C 376.402512 103.927738 376.215755 103.476867 375.883372 103.144485 
C 375.550989 102.812102 375.100118 102.625345 374.630058 102.625345 
C 374.159998 102.625345 373.709127 102.812102 373.376744 103.144485 
C 373.044361 103.476867 372.857604 103.927738 372.857604 104.397799 
C 372.857604 104.867859 373.044361 105.31873 373.376744 105.651113 
C 373.709127 105.983496 374.159998 106.170253 374.630058 106.170253 
z
" clip-path="url(#p5f0f79ffe0)" style="stroke: #000000; stroke-width: 0.886227"/>
    <path d="M 362.827681 107.585597 
C 363.297741 107.585597 363.748612 107.39884 364.080995 107.066458 
C 364.413378 106.734075 364.600135 106.283204 364.600135 105.813143 
C 364.600135 105.343083 364.413378 104.892212 364.080995 104.559829 
C 363.748612 104.227447 363.297741 104.04069 362.827681 104.04069 
C 362.357621 104.04069 361.90675 104.227447 361.574367 104.559829 
C 361.241984 104.892212 361.055227 105.343083 361.055227 105.813143 
C 361.055227 106.283204 361.241984 106.734075 361.574367 107.066458 
C 361.90675 107.39884 362.357621 107.585597 362.827681 107.585597 
z
" clip-path="url(#p5f0f79ffe0)" style="stroke: #000000; stroke-width: 0.886227"/>
    <path d="M 346.317992 91.378589 
C 346.788053 91.378589 347.238924 91.191832 347.571307 90.859449 
C 347.903689 90.527066 348.090446 90.076195 348.090446 89.606135 
C 348.090446 89.136075 347.903689 88.685204 347.571307 88.352821 
C 347.238924 88.020438 346.788053 87.833681 346.317992 87.833681 
C 345.847932 87.833681 345.397061 88.020438 345.064678 88.352821 
C 344.732296 88.685204 344.545539 89.136075 344.545539 89.606135 
C 344.545539 90.076195 344.732296 90.527066 345.064678 90.859449 
C 345.397061 91.191832 345.847932 91.378589 346.317992 91.378589 
z
" clip-path="url(#p5f0f79ffe0)" style="stroke: #000000; stroke-width: 0.886227"/>
    <path d="M 349.384798 116.09739 
C 349.854858 116.09739 350.30573 115.910633 350.638112 115.57825 
C 350.970495 115.245867 351.157252 114.794996 351.157252 114.324936 
C 351.157252 113.854876 350.970495 113.404004 350.638112 113.071622 
C 350.30573 112.739239 349.854858 112.552482 349.384798 112.552482 
C 348.914738 112.552482 348.463867 112.739239 348.131484 113.071622 
C 347.799101 113.404004 347.612344 113.854876 347.612344 114.324936 
C 347.612344 114.794996 347.799101 115.245867 348.131484 115.57825 
C 348.463867 115.910633 348.914738 116.09739 349.384798 116.09739 
z
" clip-path="url(#p5f0f79ffe0)" style="stroke: #000000; stroke-width: 0.886227"/>
    <path d="M 346.73768 122.866766 
C 347.20774 122.866766 347.658611 122.680009 347.990994 122.347626 
C 348.323377 122.015243 348.510134 121.564372 348.510134 121.094312 
C 348.510134 120.624252 348.323377 120.173381 347.990994 119.840998 
C 347.658611 119.508615 347.20774 119.321858 346.73768 119.321858 
C 346.26762 119.321858 345.816749 119.508615 345.484366 119.840998 
C 345.151983 120.173381 344.965226 120.624252 344.965226 121.094312 
C 344.965226 121.564372 345.151983 122.015243 345.484366 122.347626 
C 345.816749 122.680009 346.26762 122.866766 346.73768 122.866766 
z
" clip-path="url(#p5f0f79ffe0)" style="stroke: #000000; stroke-width: 0.886227"/>
    <path d="M 317.267827 127.907315 
C 317.737887 127.907315 318.188758 127.720558 318.521141 127.388176 
C 318.853524 127.055793 319.040281 126.604922 319.040281 126.134862 
C 319.040281 125.664801 318.853524 125.21393 318.521141 124.881547 
C 318.188758 124.549165 317.737887 124.362408 317.267827 124.362408 
C 316.797767 124.362408 316.346895 124.549165 316.014513 124.881547 
C 315.68213 125.21393 315.495373 125.664801 315.495373 126.134862 
C 315.495373 126.604922 315.68213 127.055793 316.014513 127.388176 
C 316.346895 127.720558 316.797767 127.907315 317.267827 127.907315 
z
" clip-path="url(#p5f0f79ffe0)" style="stroke: #000000; stroke-width: 0.886227"/>
    <path d="M 270.297193 123.237576 
C 270.767254 123.237576 271.218125 123.050819 271.550508 122.718436 
C 271.88289 122.386053 272.069647 121.935182 272.069647 121.465122 
C 272.069647 120.995062 271.88289 120.544191 271.550508 120.211808 
C 271.218125 119.879425 270.767254 119.692668 270.297193 119.692668 
C 269.827133 119.692668 269.376262 119.879425 269.043879 120.211808 
C 268.711496 120.544191 268.52474 120.995062 268.52474 121.465122 
C 268.52474 121.935182 268.711496 122.386053 269.043879 122.718436 
C 269.376262 123.050819 269.827133 123.237576 270.297193 123.237576 
z
" clip-path="url(#p5f0f79ffe0)" style="stroke: #000000; stroke-width: 0.886227"/>
    <path d="M 282.743313 117.537407 
C 283.213373 117.537407 283.664245 117.35065 283.996627 117.018267 
C 284.32901 116.685884 284.515767 116.235013 284.515767 115.764953 
C 284.515767 115.294893 284.32901 114.844022 283.996627 114.511639 
C 283.664245 114.179256 283.213373 113.992499 282.743313 113.992499 
C 282.273253 113.992499 281.822382 114.179256 281.489999 114.511639 
C 281.157616 114.844022 280.970859 115.294893 280.970859 115.764953 
C 280.970859 116.235013 281.157616 116.685884 281.489999 117.018267 
C 281.822382 117.35065 282.273253 117.537407 282.743313 117.537407 
z
" clip-path="url(#p5f0f79ffe0)" style="stroke: #000000; stroke-width: 0.886227"/>
    <path d="M 321.471086 115.305333 
C 321.941146 115.305333 322.392017 115.118576 322.7244 114.786193 
C 323.056783 114.45381 323.24354 114.002939 323.24354 113.532879 
C 323.24354 113.062819 323.056783 112.611948 322.7244 112.279565 
C 322.392017 111.947182 321.941146 111.760425 321.471086 111.760425 
C 321.001025 111.760425 320.550154 111.947182 320.217772 112.279565 
C 319.885389 112.611948 319.698632 113.062819 319.698632 113.532879 
C 319.698632 114.002939 319.885389 114.45381 320.217772 114.786193 
C 320.550154 115.118576 321.001025 115.305333 321.471086 115.305333 
z
" clip-path="url(#p5f0f79ffe0)" style="stroke: #000000; stroke-width: 0.886227"/>
    <path d="M 332.541846 107.709844 
C 333.011906 107.709844 333.462777 107.523088 333.79516 107.190705 
C 334.127543 106.858322 334.3143 106.407451 334.3143 105.937391 
C 334.3143 105.46733 334.127543 105.016459 333.79516 104.684076 
C 333.462777 104.351694 333.011906 104.164937 332.541846 104.164937 
C 332.071786 104.164937 331.620914 104.351694 331.288532 104.684076 
C 330.956149 105.016459 330.769392 105.46733 330.769392 105.937391 
C 330.769392 106.407451 330.956149 106.858322 331.288532 107.190705 
C 331.620914 107.523088 332.071786 107.709844 332.541846 107.709844 
z
" clip-path="url(#p5f0f79ffe0)" style="stroke: #000000; stroke-width: 0.886227"/>
    <path d="M 332.650489 112.842577 
C 333.120549 112.842577 333.57142 112.65582 333.903803 112.323438 
C 334.236186 111.991055 334.422942 111.540184 334.422942 111.070123 
C 334.422942 110.600063 334.236186 110.149192 333.903803 109.816809 
C 333.57142 109.484426 333.120549 109.29767 332.650489 109.29767 
C 332.180428 109.29767 331.729557 109.484426 331.397174 109.816809 
C 331.064792 110.149192 330.878035 110.600063 330.878035 111.070123 
C 330.878035 111.540184 331.064792 111.991055 331.397174 112.323438 
C 331.729557 112.65582 332.180428 112.842577 332.650489 112.842577 
z
" clip-path="url(#p5f0f79ffe0)" style="stroke: #000000; stroke-width: 0.886227"/>
    <path d="M 323.365892 111.875516 
C 323.835952 111.875516 324.286823 111.688759 324.619206 111.356376 
C 324.951589 111.023993 325.138346 110.573122 325.138346 110.103062 
C 325.138346 109.633002 324.951589 109.182131 324.619206 108.849748 
C 324.286823 108.517365 323.835952 108.330608 323.365892 108.330608 
C 322.895832 108.330608 322.444961 108.517365 322.112578 108.849748 
C 321.780195 109.182131 321.593438 109.633002 321.593438 110.103062 
C 321.593438 110.573122 321.780195 111.023993 322.112578 111.356376 
C 322.444961 111.688759 322.895832 111.875516 323.365892 111.875516 
z
" clip-path="url(#p5f0f79ffe0)" style="stroke: #000000; stroke-width: 0.886227"/>
    <path d="M 329.277774 110.970253 
C 329.747834 110.970253 330.198705 110.783496 330.531088 110.451114 
C 330.863471 110.118731 331.050228 109.66786 331.050228 109.1978 
C 331.050228 108.727739 330.863471 108.276868 330.531088 107.944485 
C 330.198705 107.612103 329.747834 107.425346 329.277774 107.425346 
C 328.807714 107.425346 328.356842 107.612103 328.02446 107.944485 
C 327.692077 108.276868 327.50532 108.727739 327.50532 109.1978 
C 327.50532 109.66786 327.692077 110.118731 328.02446 110.451114 
C 328.356842 110.783496 328.807714 110.970253 329.277774 110.970253 
z
" clip-path="url(#p5f0f79ffe0)" style="stroke: #000000; stroke-width: 0.886227"/>
    <path d="M 350.386883 105.695206 
C 350.856944 105.695206 351.307815 105.508449 351.640198 105.176066 
C 351.97258 104.843683 352.159337 104.392812 352.159337 103.922752 
C 352.159337 103.452692 351.97258 103.001821 351.640198 102.669438 
C 351.307815 102.337055 350.856944 102.150298 350.386883 102.150298 
C 349.916823 102.150298 349.465952 102.337055 349.133569 102.669438 
C 348.801187 103.001821 348.61443 103.452692 348.61443 103.922752 
C 348.61443 104.392812 348.801187 104.843683 349.133569 105.176066 
C 349.465952 105.508449 349.916823 105.695206 350.386883 105.695206 
z
" clip-path="url(#p5f0f79ffe0)" style="stroke: #000000; stroke-width: 0.886227"/>
    <path d="M 376.331216 134.175038 
C 376.801276 134.175038 377.252148 133.988281 377.58453 133.655898 
C 377.916913 133.323516 378.10367 132.872645 378.10367 132.402584 
C 378.10367 131.932524 377.916913 131.481653 377.58453 131.14927 
C 377.252148 130.816887 376.801276 130.63013 376.331216 130.63013 
C 375.861156 130.63013 375.410285 130.816887 375.077902 131.14927 
C 374.745519 131.481653 374.558762 131.932524 374.558762 132.402584 
C 374.558762 132.872645 374.745519 133.323516 375.077902 133.655898 
C 375.410285 133.988281 375.861156 134.175038 376.331216 134.175038 
z
" clip-path="url(#p5f0f79ffe0)" style="stroke: #000000; stroke-width: 0.886227"/>
    <path d="M 376.567732 125.643311 
C 377.037792 125.643311 377.488663 125.456554 377.821046 125.124171 
C 378.153429 124.791788 378.340186 124.340917 378.340186 123.870857 
C 378.340186 123.400797 378.153429 122.949926 377.821046 122.617543 
C 377.488663 122.28516 377.037792 122.098403 376.567732 122.098403 
C 376.097672 122.098403 375.646801 122.28516 375.314418 122.617543 
C 374.982035 122.949926 374.795278 123.400797 374.795278 123.870857 
C 374.795278 124.340917 374.982035 124.791788 375.314418 125.124171 
C 375.646801 125.456554 376.097672 125.643311 376.567732 125.643311 
z
" clip-path="url(#p5f0f79ffe0)" style="stroke: #000000; stroke-width: 0.886227"/>
    <path d="M 335.137329 116.35211 
C 335.607389 116.35211 336.05826 116.165353 336.390643 115.83297 
C 336.723026 115.500587 336.909783 115.049716 336.909783 114.579656 
C 336.909783 114.109596 336.723026 113.658725 336.390643 113.326342 
C 336.05826 112.993959 335.607389 112.807202 335.137329 112.807202 
C 334.667269 112.807202 334.216398 112.993959 333.884015 113.326342 
C 333.551632 113.658725 333.364875 114.109596 333.364875 114.579656 
C 333.364875 115.049716 333.551632 115.500587 333.884015 115.83297 
C 334.216398 116.165353 334.667269 116.35211 335.137329 116.35211 
z
" clip-path="url(#p5f0f79ffe0)" style="stroke: #000000; stroke-width: 0.886227"/>
    <path d="M 299.208911 97.233472 
C 299.678971 97.233472 300.129842 97.046715 300.462225 96.714332 
C 300.794608 96.381949 300.981365 95.931078 300.981365 95.461018 
C 300.981365 94.990958 300.794608 94.540087 300.462225 94.207704 
C 300.129842 93.875321 299.678971 93.688564 299.208911 93.688564 
C 298.73885 93.688564 298.287979 93.875321 297.955597 94.207704 
C 297.623214 94.540087 297.436457 94.990958 297.436457 95.461018 
C 297.436457 95.931078 297.623214 96.381949 297.955597 96.714332 
C 298.287979 97.046715 298.73885 97.233472 299.208911 97.233472 
z
" clip-path="url(#p5f0f79ffe0)" style="stroke: #000000; stroke-width: 0.886227"/>
   </g>
  </g>
  <g id="text_9">
   <!-- Market cash-flow exposure, not returns -->
   <g transform="translate(151.951586 15.213937) scale(0.132 -0.132)">
    <defs>
     <path id="DejaVuSans-30" d="M 628 4666 
L 1569 4666 
L 2759 1491 
L 3956 4666 
L 4897 4666 
L 4897 0 
L 4281 0 
L 4281 4097 
L 3078 897 
L 2444 897 
L 1241 4097 
L 1241 0 
L 628 0 
L 628 4666 
z
" transform="scale(0.015625)"/>
     <path id="DejaVuSans-44" d="M 2194 1759 
Q 1497 1759 1228 1600 
Q 959 1441 959 1056 
Q 959 750 1161 570 
Q 1363 391 1709 391 
Q 2188 391 2477 730 
Q 2766 1069 2766 1631 
L 2766 1759 
L 2194 1759 
z
M 3341 1997 
L 3341 0 
L 2766 0 
L 2766 531 
Q 2569 213 2275 61 
Q 1981 -91 1556 -91 
Q 1019 -91 701 211 
Q 384 513 384 1019 
Q 384 1609 779 1909 
Q 1175 2209 1959 2209 
L 2766 2209 
L 2766 2266 
Q 2766 2663 2505 2880 
Q 2244 3097 1772 3097 
Q 1472 3097 1187 3025 
Q 903 2953 641 2809 
L 641 3341 
Q 956 3463 1253 3523 
Q 1550 3584 1831 3584 
Q 2591 3584 2966 3190 
Q 3341 2797 3341 1997 
z
" transform="scale(0.015625)"/>
     <path id="DejaVuSans-55" d="M 2631 2963 
Q 2534 3019 2420 3045 
Q 2306 3072 2169 3072 
Q 1681 3072 1420 2755 
Q 1159 2438 1159 1844 
L 1159 0 
L 581 0 
L 581 3500 
L 1159 3500 
L 1159 2956 
Q 1341 3275 1631 3429 
Q 1922 3584 2338 3584 
Q 2397 3584 2469 3576 
Q 2541 3569 2628 3553 
L 2631 2963 
z
" transform="scale(0.015625)"/>
     <path id="DejaVuSans-4e" d="M 581 4863 
L 1159 4863 
L 1159 1991 
L 2875 3500 
L 3609 3500 
L 1753 1863 
L 3688 0 
L 2938 0 
L 1159 1709 
L 1159 0 
L 581 0 
L 581 4863 
z
" transform="scale(0.015625)"/>
     <path id="DejaVuSans-48" d="M 3597 1894 
L 3597 1613 
L 953 1613 
Q 991 1019 1311 708 
Q 1631 397 2203 397 
Q 2534 397 2845 478 
Q 3156 559 3463 722 
L 3463 178 
Q 3153 47 2828 -22 
Q 2503 -91 2169 -91 
Q 1331 -91 842 396 
Q 353 884 353 1716 
Q 353 2575 817 3079 
Q 1281 3584 2069 3584 
Q 2775 3584 3186 3129 
Q 3597 2675 3597 1894 
z
M 3022 2063 
Q 3016 2534 2758 2815 
Q 2500 3097 2075 3097 
Q 1594 3097 1305 2825 
Q 1016 2553 972 2059 
L 3022 2063 
z
" transform="scale(0.015625)"/>
     <path id="DejaVuSans-57" d="M 1172 4494 
L 1172 3500 
L 2356 3500 
L 2356 3053 
L 1172 3053 
L 1172 1153 
Q 1172 725 1289 603 
Q 1406 481 1766 481 
L 2356 481 
L 2356 0 
L 1766 0 
Q 1100 0 847 248 
Q 594 497 594 1153 
L 594 3053 
L 172 3053 
L 172 3500 
L 594 3500 
L 594 4494 
L 1172 4494 
z
" transform="scale(0.015625)"/>
     <path id="DejaVuSans-3" transform="scale(0.015625)"/>
     <path id="DejaVuSans-46" d="M 3122 3366 
L 3122 2828 
Q 2878 2963 2633 3030 
Q 2388 3097 2138 3097 
Q 1578 3097 1268 2742 
Q 959 2388 959 1747 
Q 959 1106 1268 751 
Q 1578 397 2138 397 
Q 2388 397 2633 464 
Q 2878 531 3122 666 
L 3122 134 
Q 2881 22 2623 -34 
Q 2366 -91 2075 -91 
Q 1284 -91 818 406 
Q 353 903 353 1747 
Q 353 2603 823 3093 
Q 1294 3584 2113 3584 
Q 2378 3584 2631 3529 
Q 2884 3475 3122 3366 
z
" transform="scale(0.015625)"/>
     <path id="DejaVuSans-56" d="M 2834 3397 
L 2834 2853 
Q 2591 2978 2328 3040 
Q 2066 3103 1784 3103 
Q 1356 3103 1142 2972 
Q 928 2841 928 2578 
Q 928 2378 1081 2264 
Q 1234 2150 1697 2047 
L 1894 2003 
Q 2506 1872 2764 1633 
Q 3022 1394 3022 966 
Q 3022 478 2636 193 
Q 2250 -91 1575 -91 
Q 1294 -91 989 -36 
Q 684 19 347 128 
L 347 722 
Q 666 556 975 473 
Q 1284 391 1588 391 
Q 1994 391 2212 530 
Q 2431 669 2431 922 
Q 2431 1156 2273 1281 
Q 2116 1406 1581 1522 
L 1381 1569 
Q 847 1681 609 1914 
Q 372 2147 372 2553 
Q 372 3047 722 3315 
Q 1072 3584 1716 3584 
Q 2034 3584 2315 3537 
Q 2597 3491 2834 3397 
z
" transform="scale(0.015625)"/>
     <path id="DejaVuSans-4b" d="M 3513 2113 
L 3513 0 
L 2938 0 
L 2938 2094 
Q 2938 2591 2744 2837 
Q 2550 3084 2163 3084 
Q 1697 3084 1428 2787 
Q 1159 2491 1159 1978 
L 1159 0 
L 581 0 
L 581 4863 
L 1159 4863 
L 1159 2956 
Q 1366 3272 1645 3428 
Q 1925 3584 2291 3584 
Q 2894 3584 3203 3211 
Q 3513 2838 3513 2113 
z
" transform="scale(0.015625)"/>
     <path id="DejaVuSans-13b0" d="M 1831 4863 
L 3431 4863 
L 3431 0 
L 2853 0 
L 2853 4384 
L 1825 4384 
Q 1516 4384 1395 4259 
Q 1275 4134 1275 3809 
L 1275 3500 
L 2222 3500 
L 2222 3053 
L 1275 3053 
L 1275 0 
L 697 0 
L 697 3053 
L 147 3053 
L 147 3500 
L 697 3500 
L 697 3744 
Q 697 4328 969 4595 
Q 1241 4863 1831 4863 
z
" transform="scale(0.015625)"/>
     <path id="DejaVuSans-52" d="M 1959 3097 
Q 1497 3097 1228 2736 
Q 959 2375 959 1747 
Q 959 1119 1226 758 
Q 1494 397 1959 397 
Q 2419 397 2687 759 
Q 2956 1122 2956 1747 
Q 2956 2369 2687 2733 
Q 2419 3097 1959 3097 
z
M 1959 3584 
Q 2709 3584 3137 3096 
Q 3566 2609 3566 1747 
Q 3566 888 3137 398 
Q 2709 -91 1959 -91 
Q 1206 -91 779 398 
Q 353 888 353 1747 
Q 353 2609 779 3096 
Q 1206 3584 1959 3584 
z
" transform="scale(0.015625)"/>
     <path id="DejaVuSans-5a" d="M 269 3500 
L 844 3500 
L 1563 769 
L 2278 3500 
L 2956 3500 
L 3675 769 
L 4391 3500 
L 4966 3500 
L 4050 0 
L 3372 0 
L 2619 2869 
L 1863 0 
L 1184 0 
L 269 3500 
z
" transform="scale(0.015625)"/>
     <path id="DejaVuSans-5b" d="M 3513 3500 
L 2247 1797 
L 3578 0 
L 2900 0 
L 1881 1375 
L 863 0 
L 184 0 
L 1544 1831 
L 300 3500 
L 978 3500 
L 1906 2253 
L 2834 3500 
L 3513 3500 
z
" transform="scale(0.015625)"/>
     <path id="DejaVuSans-53" d="M 1159 525 
L 1159 -1331 
L 581 -1331 
L 581 3500 
L 1159 3500 
L 1159 2969 
Q 1341 3281 1617 3432 
Q 1894 3584 2278 3584 
Q 2916 3584 3314 3078 
Q 3713 2572 3713 1747 
Q 3713 922 3314 415 
Q 2916 -91 2278 -91 
Q 1894 -91 1617 61 
Q 1341 213 1159 525 
z
M 3116 1747 
Q 3116 2381 2855 2742 
Q 2594 3103 2138 3103 
Q 1681 3103 1420 2742 
Q 1159 2381 1159 1747 
Q 1159 1113 1420 752 
Q 1681 391 2138 391 
Q 2594 391 2855 752 
Q 3116 1113 3116 1747 
z
" transform="scale(0.015625)"/>
     <path id="DejaVuSans-58" d="M 544 1381 
L 544 3500 
L 1119 3500 
L 1119 1403 
Q 1119 906 1312 657 
Q 1506 409 1894 409 
Q 2359 409 2629 706 
Q 2900 1003 2900 1516 
L 2900 3500 
L 3475 3500 
L 3475 0 
L 2900 0 
L 2900 538 
Q 2691 219 2414 64 
Q 2138 -91 1772 -91 
Q 1169 -91 856 284 
Q 544 659 544 1381 
z
M 1991 3584 
L 1991 3584 
z
" transform="scale(0.015625)"/>
     <path id="DejaVuSans-f" d="M 750 794 
L 1409 794 
L 1409 256 
L 897 -744 
L 494 -744 
L 750 256 
L 750 794 
z
" transform="scale(0.015625)"/>
     <path id="DejaVuSans-51" d="M 3513 2113 
L 3513 0 
L 2938 0 
L 2938 2094 
Q 2938 2591 2744 2837 
Q 2550 3084 2163 3084 
Q 1697 3084 1428 2787 
Q 1159 2491 1159 1978 
L 1159 0 
L 581 0 
L 581 3500 
L 1159 3500 
L 1159 2956 
Q 1366 3272 1645 3428 
Q 1925 3584 2291 3584 
Q 2894 3584 3203 3211 
Q 3513 2838 3513 2113 
z
" transform="scale(0.015625)"/>
    </defs>
    <use xlink:href="#DejaVuSans-30"/>
    <use xlink:href="#DejaVuSans-44" transform="translate(86.28125 0)"/>
    <use xlink:href="#DejaVuSans-55" transform="translate(147.5625 0)"/>
    <use xlink:href="#DejaVuSans-4e" transform="translate(188.671875 0)"/>
    <use xlink:href="#DejaVuSans-48" transform="translate(243.015625 0)"/>
    <use xlink:href="#DejaVuSans-57" transform="translate(304.546875 0)"/>
    <use xlink:href="#DejaVuSans-3" transform="translate(343.75 0)"/>
    <use xlink:href="#DejaVuSans-46" transform="translate(375.53125 0)"/>
    <use xlink:href="#DejaVuSans-44" transform="translate(430.515625 0)"/>
    <use xlink:href="#DejaVuSans-56" transform="translate(491.796875 0)"/>
    <use xlink:href="#DejaVuSans-4b" transform="translate(543.890625 0)"/>
    <use xlink:href="#DejaVuSans-10" transform="translate(607.265625 0)"/>
    <use xlink:href="#DejaVuSans-13b0" transform="translate(643.34375 0)"/>
    <use xlink:href="#DejaVuSans-52" transform="translate(706.328125 0)"/>
    <use xlink:href="#DejaVuSans-5a" transform="translate(767.515625 0)"/>
    <use xlink:href="#DejaVuSans-3" transform="translate(849.296875 0)"/>
    <use xlink:href="#DejaVuSans-48" transform="translate(881.078125 0)"/>
    <use xlink:href="#DejaVuSans-5b" transform="translate(940.859375 0)"/>
    <use xlink:href="#DejaVuSans-53" transform="translate(1000.046875 0)"/>
    <use xlink:href="#DejaVuSans-52" transform="translate(1063.53125 0)"/>
    <use xlink:href="#DejaVuSans-56" transform="translate(1124.71875 0)"/>
    <use xlink:href="#DejaVuSans-58" transform="translate(1176.8125 0)"/>
    <use xlink:href="#DejaVuSans-55" transform="translate(1240.1875 0)"/>
    <use xlink:href="#DejaVuSans-48" transform="translate(1279.09375 0)"/>
    <use xlink:href="#DejaVuSans-f" transform="translate(1340.625 0)"/>
    <use xlink:href="#DejaVuSans-3" transform="translate(1372.40625 0)"/>
    <use xlink:href="#DejaVuSans-51" transform="translate(1404.1875 0)"/>
    <use xlink:href="#DejaVuSans-52" transform="translate(1467.5625 0)"/>
    <use xlink:href="#DejaVuSans-57" transform="translate(1528.75 0)"/>
    <use xlink:href="#DejaVuSans-3" transform="translate(1567.953125 0)"/>
    <use xlink:href="#DejaVuSans-55" transform="translate(1599.734375 0)"/>
    <use xlink:href="#DejaVuSans-48" transform="translate(1638.640625 0)"/>
    <use xlink:href="#DejaVuSans-57" transform="translate(1700.171875 0)"/>
    <use xlink:href="#DejaVuSans-58" transform="translate(1739.375 0)"/>
    <use xlink:href="#DejaVuSans-55" transform="translate(1802.75 0)"/>
    <use xlink:href="#DejaVuSans-51" transform="translate(1842.109375 0)"/>
    <use xlink:href="#DejaVuSans-56" transform="translate(1905.484375 0)"/>
   </g>
  </g>
  <g id="text_10">
   <!-- Two-year MA of lagged Δc -->
   <g transform="translate(210.23268 236.973422) scale(0.11 -0.11)">
    <defs>
     <path id="DejaVuSans-37" d="M -19 4666 
L 3928 4666 
L 3928 4134 
L 2272 4134 
L 2272 0 
L 1638 0 
L 1638 4134 
L -19 4134 
L -19 4666 
z
" transform="scale(0.015625)"/>
     <path id="DejaVuSans-5c" d="M 2059 -325 
Q 1816 -950 1584 -1140 
Q 1353 -1331 966 -1331 
L 506 -1331 
L 506 -850 
L 844 -850 
Q 1081 -850 1212 -737 
Q 1344 -625 1503 -206 
L 1606 56 
L 191 3500 
L 800 3500 
L 1894 763 
L 2988 3500 
L 3597 3500 
L 2059 -325 
z
" transform="scale(0.015625)"/>
     <path id="DejaVuSans-24" d="M 2188 4044 
L 1331 1722 
L 3047 1722 
L 2188 4044 
z
M 1831 4666 
L 2547 4666 
L 4325 0 
L 3669 0 
L 3244 1197 
L 1141 1197 
L 716 0 
L 50 0 
L 1831 4666 
z
" transform="scale(0.015625)"/>
     <path id="DejaVuSans-49" d="M 2375 4863 
L 2375 4384 
L 1825 4384 
Q 1516 4384 1395 4259 
Q 1275 4134 1275 3809 
L 1275 3500 
L 2222 3500 
L 2222 3053 
L 1275 3053 
L 1275 0 
L 697 0 
L 697 3053 
L 147 3053 
L 147 3500 
L 697 3500 
L 697 3744 
Q 697 4328 969 4595 
Q 1241 4863 1831 4863 
L 2375 4863 
z
" transform="scale(0.015625)"/>
     <path id="DejaVuSans-4f" d="M 603 4863 
L 1178 4863 
L 1178 0 
L 603 0 
L 603 4863 
z
" transform="scale(0.015625)"/>
     <path id="DejaVuSans-4a" d="M 2906 1791 
Q 2906 2416 2648 2759 
Q 2391 3103 1925 3103 
Q 1463 3103 1205 2759 
Q 947 2416 947 1791 
Q 947 1169 1205 825 
Q 1463 481 1925 481 
Q 2391 481 2648 825 
Q 2906 1169 2906 1791 
z
M 3481 434 
Q 3481 -459 3084 -895 
Q 2688 -1331 1869 -1331 
Q 1566 -1331 1297 -1286 
Q 1028 -1241 775 -1147 
L 775 -588 
Q 1028 -725 1275 -790 
Q 1522 -856 1778 -856 
Q 2344 -856 2625 -561 
Q 2906 -266 2906 331 
L 2906 616 
Q 2728 306 2450 153 
Q 2172 0 1784 0 
Q 1141 0 747 490 
Q 353 981 353 1791 
Q 353 2603 747 3093 
Q 1141 3584 1784 3584 
Q 2172 3584 2450 3431 
Q 2728 3278 2906 2969 
L 2906 3500 
L 3481 3500 
L 3481 434 
z
" transform="scale(0.015625)"/>
     <path id="DejaVuSans-47" d="M 2906 2969 
L 2906 4863 
L 3481 4863 
L 3481 0 
L 2906 0 
L 2906 525 
Q 2725 213 2448 61 
Q 2172 -91 1784 -91 
Q 1150 -91 751 415 
Q 353 922 353 1747 
Q 353 2572 751 3078 
Q 1150 3584 1784 3584 
Q 2172 3584 2448 3432 
Q 2725 3281 2906 2969 
z
M 947 1747 
Q 947 1113 1208 752 
Q 1469 391 1925 391 
Q 2381 391 2643 752 
Q 2906 1113 2906 1747 
Q 2906 2381 2643 2742 
Q 2381 3103 1925 3103 
Q 1469 3103 1208 2742 
Q 947 2381 947 1747 
z
" transform="scale(0.015625)"/>
     <path id="DejaVuSans-329" d="M 2188 4044 
L 906 525 
L 3472 525 
L 2188 4044 
z
M 50 0 
L 1831 4666 
L 2547 4666 
L 4325 0 
L 50 0 
z
" transform="scale(0.015625)"/>
    </defs>
    <use xlink:href="#DejaVuSans-37"/>
    <use xlink:href="#DejaVuSans-5a" transform="translate(44.53125 0)"/>
    <use xlink:href="#DejaVuSans-52" transform="translate(126.3125 0)"/>
    <use xlink:href="#DejaVuSans-10" transform="translate(189.359375 0)"/>
    <use xlink:href="#DejaVuSans-5c" transform="translate(223.6875 0)"/>
    <use xlink:href="#DejaVuSans-48" transform="translate(282.875 0)"/>
    <use xlink:href="#DejaVuSans-44" transform="translate(344.40625 0)"/>
    <use xlink:href="#DejaVuSans-55" transform="translate(405.6875 0)"/>
    <use xlink:href="#DejaVuSans-3" transform="translate(446.796875 0)"/>
    <use xlink:href="#DejaVuSans-30" transform="translate(478.578125 0)"/>
    <use xlink:href="#DejaVuSans-24" transform="translate(564.859375 0)"/>
    <use xlink:href="#DejaVuSans-3" transform="translate(633.265625 0)"/>
    <use xlink:href="#DejaVuSans-52" transform="translate(665.046875 0)"/>
    <use xlink:href="#DejaVuSans-49" transform="translate(726.234375 0)"/>
    <use xlink:href="#DejaVuSans-3" transform="translate(761.4375 0)"/>
    <use xlink:href="#DejaVuSans-4f" transform="translate(793.21875 0)"/>
    <use xlink:href="#DejaVuSans-44" transform="translate(821 0)"/>
    <use xlink:href="#DejaVuSans-4a" transform="translate(882.28125 0)"/>
    <use xlink:href="#DejaVuSans-4a" transform="translate(945.765625 0)"/>
    <use xlink:href="#DejaVuSans-48" transform="translate(1009.25 0)"/>
    <use xlink:href="#DejaVuSans-47" transform="translate(1070.78125 0)"/>
    <use xlink:href="#DejaVuSans-3" transform="translate(1134.265625 0)"/>
    <use xlink:href="#DejaVuSans-329" transform="translate(1166.046875 0)"/>
    <use xlink:href="#DejaVuSans-46" transform="translate(1234.453125 0)"/>
   </g>
  </g>
  <g id="text_11">
   <!-- Market Δd -->
   <g transform="translate(13.542281 144.533289) rotate(-90) scale(0.11 -0.11)">
    <use xlink:href="#DejaVuSans-30"/>
    <use xlink:href="#DejaVuSans-44" transform="translate(86.28125 0)"/>
    <use xlink:href="#DejaVuSans-55" transform="translate(147.5625 0)"/>
    <use xlink:href="#DejaVuSans-4e" transform="translate(188.671875 0)"/>
    <use xlink:href="#DejaVuSans-48" transform="translate(243.015625 0)"/>
    <use xlink:href="#DejaVuSans-57" transform="translate(304.546875 0)"/>
    <use xlink:href="#DejaVuSans-3" transform="translate(343.75 0)"/>
    <use xlink:href="#DejaVuSans-329" transform="translate(375.53125 0)"/>
    <use xlink:href="#DejaVuSans-47" transform="translate(443.9375 0)"/>
   </g>
  </g>
 </g>
 <defs>
  <clipPath id="p5f0f79ffe0">
   <rect x="49.087484" y="23.569031" width="464.128516" height="186.112109"/>
  </clipPath>
 </defs>
</svg>
